<svg xmlns="http://www.w3.org/2000/svg" width="512" height="512" fill-rule="evenodd" stroke-linejoin="round" stroke-miterlimit="1.414" aria-label="Logo" clip-rule="evenodd"><path fill="#ff4088" d="M466.411 328.42V166.644a59.34 59.34 0 0 0-29.279-51.159c-38.927-22.87-107.699-63.277-149.817-88.026a69.643 69.643 0 0 0-71.828.768c-37.278 22.986-95.436 58.847-132.978 82a76.658 76.658 0 0 0-36.43 65.252v165.64c0 26.384 14 50.783 36.774 64.096l138.575 81.002a60.34 60.34 0 0 0 59.813.622c40.467-22.544 112.136-62.455 153.423-85.452a61.808 61.808 0 0 0 31.72-53.99v-18.977z"/><path fill="#c9177e" d="M252.223 0h.366l.327.004h1.871l.327.013h.04l.327.013h.035l.331.014h.027l.33.013h.04l.318.013h.04l.317.013h.026l.331.014h.04l.33.026h.04l.318.027h.027l.317.026h.04l.33.026h.027l.318.027h.04l.33.026h.04l.33.027h.04l.331.026h.04l.318.027h.04l.317.026h.04l.33.027h.04l.331.04h.04l.33.04h.027l.318.039h.04l.317.04h.04l.33.04h.04l.33.039h.027l.318.04h.04l.33.04h.04l.318.052.04.013.33.053h.04l.318.053h.026l.33.053h.04l.318.053h.04l.317.053h.027l.33.053h.04l.318.053.04.013.317.053.04.013.318.067h.04l.317.053h.04l.317.066h.04l.33.066h.027l.318.066h.04l.317.066h.026l.331.066.04.014.33.066h.027l.318.08.04.012.317.08h.04l.33.08.027.012.318.067.04.013.317.066.027.013.317.08h.04l.317.079.04.013.318.08.026.013.331.08.026.012.318.08.04.013.317.08h.027l.317.092h.04l.33.08.04.013.318.08h.04l.317.092.04.013.318.093.04.013.317.093.04.013.317.092.027.014.317.092.04.013.318.093.04.013.317.093.04.013.317.106.027.013.317.106h.04l.318.106h.04l.317.106.04.013.317.106.04.013.318.106.026.013.318.106.04.013.317.106.026.014.318.105.026.014.305.105.04.014.304.106.04.013.304.119.04.013.317.12.04.012.304.12.027.013.317.106.027.013.317.119.04.013.318.12.04.013.304.119.04.013.304.132.026.013.318.12.04.013.304.132.04.013.317.133.04.013.317.132.027.013.317.133.027.013.304.132.027.014.304.132.027.013.317.132.027.014.304.132.04.013.304.133.04.013.304.132.027.013.304.146.04.013.304.146.04.013.304.146.027.013.304.145.026.014.305.145.04.013.304.146.04.013.304.146.04.013.304.146.026.013.305.159.026.026.305.146.026.013.291.159.04.013.304.145.027.014.304.158.04.014.29.158.04.027.305.159.04.013.304.159.026.013.292.159.04.026.304.159.026.027.291.172.027.026.29.172.04.013.292.172.026.014.291.172.027.026.29.172.04.027.278.172h.027l149.93 88.091.25.146.027.026.251.146.04.013.238.159.027.026.238.146.026.026.239.146.026.013.238.146.027.013.238.146.026.013.239.145.04.014.238.158.026.014.238.158.04.014.238.145.027.013.238.16.026.026.238.159.027.026.225.146.04.013.238.159.026.013.238.159.027.013.225.159.026.013.225.159.027.013.225.159.026.026.225.159.027.013.225.172.04.027.224.158.027.014.225.159.026.013.225.159.027.026.224.159.027.013.225.159.026.026.225.16.027.026.225.172.04.026.211.172.04.027.225.172.04.013.224.172.027.026.225.172.026.027.212.172.04.026.225.186.04.04.423.343.053.04.423.357.053.04.437.357.053.04.437.357.052.04.424.357.053.053.423.357.053.04.41.37.053.04.41.37.054.04.41.384.053.04.397.37.053.04.41.384.053.053.397.384.053.053.397.383.053.053.383.384.053.053.384.397.053.053.384.397.04.053.383.397.053.053.37.397.054.053.37.397.053.053.37.397.054.053.37.41.053.053.357.423.04.053.37.41.053.053.358.424.053.053.357.423.04.053.357.423.053.053.344.424.04.053.344.423.053.053.344.437.04.053.33.436.04.053.33.437.04.053.331.437.04.066.33.45.04.053.331.436.04.067.318.45.04.052.317.45.04.053.317.45.04.066.304.45.04.066.304.464.04.066.291.45.04.053.29.45.04.052.305.464.04.053.29.463.04.066.278.463.04.066.291.463.04.067.278.463.04.066.277.476.04.053.265.477.04.066.264.476.04.066.264.477.04.066.265.476.026.066.265.49.026.066.252.49.026.066.252.49.04.052.238.503.026.067.251.49.027.065.238.49.04.066.225.503.026.066.225.503.027.066.225.503.026.066.225.503.027.066.211.503.027.066.211.503.027.066.198.516.027.066.198.503.027.066.198.517.027.066.198.516.027.066.198.516.027.066.185.516.026.066.172.517.027.066.172.516.026.066.172.516.027.066.172.53.013.066.159.516.026.066.16.53.012.065.16.53.026.066.159.53.026.065.146.53.026.066.146.53.013.065.132.53.027.08.145.542.013.066.133.542.026.066.12.543.026.066.132.543.013.08.12.542.013.066.119.542.013.067.106.542.013.066.106.543.013.066.106.543.013.066.093.556.013.066.093.542.013.08.093.555.013.08.08.556.013.079.079.543v.052l.04.292v.026l.026.278v.04l.04.278v.026l.04.278v.04l.04.278.012.04.04.277v.04l.027.278.013.026.026.278.014.04.026.278v.04l.026.277.014.04.026.278.013.04.027.277v.04l.026.278v.04l.027.278v.04l.026.277v.04l.027.278v.04l.013.277v.04l.013.291v.04l.027.291v.026l.013.278v.04l.013.278v.04l.013.278v.04l.014.277v.04l.013.291v.04l.013.278v.04l.013.277v.027l.014.278v184.732l-.014.304v.384l-.013.304v.04l-.013.29v.027l-.013.305v.04l-.014.29v.027l-.013.291v.04l-.013.29-.013.04-.014.292v.04l-.013.29v.027l-.013.304v.04l-.027.304v.027l-.026.304v.04l-.026.291v.04l-.014.29v.04l-.026.292v.04l-.027.29v.04l-.026.291v.04l-.027.291-.013.027-.026.304-.013.04-.027.29v.04l-.026.292-.014.04-.04.29v.04l-.039.291v.027l-.04.29v.04l-.04.292-.013.04-.04.304-.013.04-.04.29-.013.04-.04.291v.04l-.039.291v.04l-.04.291-.013.04-.04.29-.013.04-.053.292v.026l-.04.291v.027l-.052.29-.014.04-.04.292-.013.04-.04.29v.027l-.052.291v.027l-.053.29v.027l-.053.291v.04l-.053.278-.013.04-.053.277-.013.04-.053.291-.014.04-.066.291v.027l-.066.29v.027l-.053.278v.04l-.066.29v.027l-.053.292-.013.026-.066.278v.026l-.066.278v.04l-.067.278-.013.04-.066.277-.013.04-.066.278-.014.026-.066.278-.013.027-.066.278-.013.04-.08.277-.013.04-.066.278-.013.04-.08.277v.04l-.08.291-.012.04-.08.278v.04l-.08.277-.013.04-.079.278-.013.04-.08.29-.013.027-.08.278-.012.027-.08.278-.013.04-.093.277-.013.04-.08.278-.013.026-.079.278-.013.04-.08.278-.013.026-.092.278-.014.04-.092.278-.014.04-.092.277-.013.04-.093.278-.013.04-.093.277-.013.027-.093.278-.013.04-.093.277-.013.04-.092.278-.014.026-.092.278-.014.04-.092.278-.013.04-.106.264-.014.04-.092.265-.013.04-.093.264-.013.04-.093.278-.013.04-.106.277-.013.04-.106.265-.013.04-.106.264-.013.04-.106.264-.014.04-.105.265-.014.04-.105.264-.014.04-.106.264-.013.027-.119.264-.013.04-.12.278-.012.04-.106.264-.014.04-.119.265-.013.04-.119.264-.013.04-.12.265-.013.026-.119.265-.013.04-.119.264-.013.026-.12.265-.013.027-.119.264-.013.027-.119.264-.013.027-.133.264-.013.027-.132.251-.013.04-.12.265-.013.026-.132.252-.013.04-.12.264-.013.026-.132.265-.013.04-.132.264-.014.027-.132.251-.013.027-.133.264-.013.04-.132.265-.013.04-.133.264-.026.04-.132.251-.014.027-.132.264-.013.04-.133.265-.013.04-.145.25-.027.027-.145.252-.014.026-.145.252-.013.026-.146.252-.013.026-.146.252-.013.026-.146.251-.013.04-.145.252-.014.026-.145.251-.013.04-.146.252-.026.026-.146.251-.026.027-.146.251-.013.027-.146.251-.013.04-.159.251-.013.027-.146.238-.013.04-.145.238-.027.026-.159.252-.013.04-.159.238-.026.026-.159.238-.013.027-.159.251-.027.04-.158.238-.027.027-.159.238-.013.026-.159.252-.013.026-.159.238-.026.027-.172.238-.013.026-.16.239-.012.026-.172.238-.014.027-.158.238-.027.026-.159.239-.026.026-.172.238-.027.027-.158.238-.014.026-.172.239-.026.04-.159.238-.026.026-.172.238-.027.027-.172.238-.026.026-.172.238-.027.027-.172.238-.013.027-.172.225-.027.026-.172.225-.013.026-.185.225-.027.027-.172.225-.013.026-.172.239-.026.026-.186.238-.026.027-.185.225-.027.026-.185.225-.013.026-.186.225-.026.027-.185.225-.027.026-.185.225-.027.027-.185.225-.026.026-.186.225-.013.027-.185.225-.026.026-.199.225-.026.026-.186.225-.026.027-.185.225-.027.026-.185.225-.027.027-.185.225-.026.026-.186.212-.026.026-.199.225-.026.027-.185.225-.027.026-.198.225-.027.027-.185.225-.026.026-.199.212-.026.026-.199.212-.026.026-.199.212-.026.027-.199.211-.026.027-.199.212-.026.026-.199.212-.026.026-.199.212-.026.026-.199.212-.026.027-.212.211-.026.027-.199.212-.026.026-.199.198-.026.027-.212.212-.04.026-.211.212-.027.026-.212.199-.026.026-.212.212-.026.026-.212.199-.026.026-.212.199-.027.026-.211.199-.027.026-.212.199-.026.026-.212.199-.026.026-.212.199-.026.026-.225.199-.027.013-.212.198-.026.027-.225.198-.026.027-.225.198-.027.014-.225.198-.026.027-.225.185-.04.026-.225.186-.026.026-.225.199-.027.026-.225.198-.026.027-.225.198-.027.027-.225.185-.026.027-.238.185-.027.013-.225.185-.026.027-.225.185-.04.027-.225.185-.026.026-.225.186-.027.026-.225.185-.026.027-.238.185-.027.027-.225.172-.026.026-.238.185-.027.027-.238.185-.027.026-.238.186-.026.026-.238.185-.027.014-.238.172-.027.013-.238.172-.026.013-.238.172-.04.013-.238.172-.027.027-.238.172-.026.026-.239.172-.026.027-.238.172-.04.026-.238.172-.027.014-.251.172-.04.013-.251.172-.027.026-.251.172-.027.027-.25.159-.027.026-.252.172-.026.027-.238.172-.04.026-.252.159-.026.013-.251.159-.04.013-.252.16-.026.026-.252.158-.026.027-.251.159-.027.013-.251.159-.04.013-.251.159-.027.026-.251.159-.04.013-.251.159-.04.026-.252.16-.04.026-.264.158-.026.027-.252.145-.04.014-.25.145-.027.027-.265.159-.04.026-.264.146-.027.026-.251.146-.04.013-.265.145-.04.014-.264.145-.026.013-.252.146-.013.013-153.41 85.485h-.013l-.238.146-.04.013-.251.145-.04.027-.251.132-.04.013-.252.133-.026.013-.251.132-.04.014-.252.132-.04.013-.25.132-.04.014-.252.132-.026.013-.252.133-.026.013-.252.119-.026.013-.265.133-.026.026-.252.132-.026.014-.252.119-.026.013-.251.119-.027.013-.251.133-.027.013-.264.119-.027.013-.251.12-.027.012-.264.12-.027.013-.251.119-.027.013-.251.12-.04.026-.265.119-.026.013-.265.106-.026.013-.265.12-.026.026-.265.119-.04.013-.251.106-.027.013-.264.12-.027.012-.264.106-.027.013-.264.106-.027.014-.265.105-.04.014-.264.106-.04.013-.264.106-.04.013-.251.106-.027.013-.265.093-.026.013-.265.106-.04.013-.264.106-.04.013-.264.106-.04.013-.265.093-.04.013-.264.106-.04.013-.264.093-.027.013-.265.093-.04.013-.264.092-.04.014-.264.092-.04.014-.265.092-.026.013-.265.093-.264.093-.04.013-.278.08-.04.013-.264.079-.027.013-.265.093-.026.013-.278.08-.04.013-.264.079-.04.013-.265.08-.04.013-.277.093-.053.013-.53.159-.066.026-.542.159-.066.013-.543.159-.066.013-.543.146-.066.026-.542.146-.066.013-.543.145-.08.014-.542.132-.066.013-.543.133-.08.013-.542.132-.066.013-.542.12-.067.013-.555.119-.08.013-.556.12-.066.012-.555.106-.067.013-.542.093-.066.013-.543.106-.066.013-.556.093-.066.013-.556.093-.066.013-.556.08-.066.013-.556.08-.066.012-.556.08-.066.013-.556.08-.079.013-.556.066-.066.013-.556.066-.066.013-.556.067-.555.053h-.067l-.555.04-.067.013-.555.04h-.066l-.556.039h-.066l-.556.04-.08.013-.555.04h-.067l-.555.026h-.067l-.555.026h-.08l-.555.014h-.067l-.555.013h-.067l-.555.013h-1.959l-.556-.013-.555-.013h-.08l-.556-.014h-.012l-.555-.026-.066-.013-.556-.027h-.066l-.556-.026-.066-.013-.556-.027h-.066l-.556-.04-.066-.013-.556-.053-.08-.013-.555-.053-.08-.013-.555-.053-.067-.013-.555-.053h-.067l-.555-.053-.066-.013-.556-.067h-.08l-.555-.066-.08-.013-.556-.08-.066-.013-.556-.079-.066-.013-.556-.08-.066-.013-.555-.08-.067-.012-.542-.093h-.04l-.556-.106-.071-.013-.543-.106-.066-.013-.542-.106-.067-.013-.542-.106-.08-.013-.55-.106-.066-.014-.543-.119-.08-.026-.542-.12-.066-.012-.542-.133-.074-.026-.543-.133-.066-.026-.543-.146-.066-.013-.542-.145-.067-.027-.542-.145-.066-.027-.543-.145-.066-.027-.543-.159-.079-.026-.543-.159-.066-.026-.542-.16-.066-.026-.543-.159-.066-.013-.527-.172-.053-.013-.278-.093h-.035l-.265-.079-.04-.013-.264-.093-.04-.013-.265-.093-.04-.013-.264-.093-.04-.013-.264-.093-.04-.013-.265-.092-.026-.014-.265-.092-.026-.013-.265-.093-.027-.013-.264-.106-.04-.013-.265-.106-.04-.014-.264-.105-.026-.014-.265-.105-.04-.014-.264-.106-.027-.013-.265-.106-.04-.013-.264-.106-.026-.013-.265-.106-.026-.013-.265-.106-.04-.013-.265-.106-.04-.013-.264-.106-.04-.013-.264-.106-.04-.013-.265-.106-.026-.014-.265-.119-.04-.013-.25-.119-.027-.013-.265-.12-.026-.013-.265-.119-.027-.013-.264-.106-.04-.013-.251-.12-.04-.012-.265-.12-.04-.013-.25-.119-.027-.026-.252-.12-.026-.013-.252-.119-.026-.013-.265-.119-.026-.026-.265-.133-.026-.026-.252-.12-.04-.013-.264-.119-.027-.026-.251-.132-.04-.014-.264-.132-.027-.013-.251-.133-.04-.013-.251-.132-.027-.013-.251-.133-.04-.026-.251-.133-.027-.013-.251-.132-.027-.013-.251-.133-.04-.026-.251-.132-.027-.014-.251-.145-.04-.027-.251-.132-.04-.013-.251-.133-.04-.013-.252-.132-.04-.013-.25-.146-.04-.013-.239-.146-.04-.013-.237-.146-.014-.013-138.681-80.946-.013-.013-.291-.172-.027-.013-.291-.172-.04-.013-.304-.173-.04-.013-.29-.185-.027-.013-.291-.186-.027-.026-.291-.185-.027-.027-.29-.185-.04-.013-.291-.172-.04-.027-.291-.185-.027-.026-.29-.186h.067l-.292-.185-.04-.026-.29-.186-.027-.026-.29-.185-.038-.027-.291-.198-.04-.027-.29-.198-.027-.027-.292-.185-.026-.027-.291-.198-.027-.026-.29-.199-.027-.026-.278-.199-.04-.026-.284-.199-.027-.026-.278-.199-.033-.026-.278-.199-.035-.026-.278-.199-.027-.013-.278-.198-.026-.027-.274-.198-.026-.027-.273-.198-.04-.014-.278-.198-.026-.027-.278-.211-.026-.027-.278-.198-.035-.027-.278-.211-.034-.027-.265-.212-.026-.026-.265-.212-.026-.013-.265-.212-.026-.026-.265-.212-.027-.026-.264-.212-.027-.027-.264-.211-.027-.027-.264-.212-.027-.026-.265-.212L62 412l-.265-.225-.026-.013-.265-.212-.026-.027-.257-.211-.026-.027-.265-.225-.027-.026-.264-.212-.027-.026-.264-.225-.027-.014-.26-.211-.026-.027-.251-.212-.027-.026-.251-.225-.026-.026-.252-.225-.026-.027-.252-.225-.026-.026-.252-.225-.026-.027-.252-.225-.026-.026-.251-.238-.027-.014-.251-.225-.04-.026-.245-.238-.026-.027-.252-.225-.026-.026-.246-.238-.027-.027-.238-.238-.026-.026-.239-.239-.026-.026-.252-.238-.026-.027-.251-.238-.027-.013-.238-.238-.027-.027-.238-.238-.026-.026-.238-.239-.027-.026-.238-.238-.027-.027-.238-.238-.026-.026-.238-.239-.027-.026-.225-.238-.026-.027-.238-.238-.027-.026-.238-.252-.027-.026-.225-.252-.026-.026-.225-.252-.026-.026-.239-.252-.026-.026-.225-.251-.027-.027-.225-.251-.026-.027-.225-.251-.026-.027-.225-.251-.027-.027-.225-.251-.013-.026-.212-.252-.026-.026-.225-.252-.027-.026-.238-.265-.026-.026-.225-.252-.027-.026-.225-.265-.026-.026-.212-.252-.013-.026-.212-.252-.026-.026-.212-.265-.027-.026-.224-.265-.027-.026-.212-.252-.026-.026-.225-.252-.027-.026-.211-.252-.027-.026-.211-.265-.027-.026-.212-.265-.026-.026-.212-.265-.026-.026-.212-.265-.027-.027-.211-.264-.013-.027-.199-.264-.026-.027-.199-.265-.013-.026-.199-.265-.026-.026-.199-.278-.026-.026-.199-.265-.026-.027-.199-.264-.013-.027-.198-.278-.014-.026-.198-.278-.013-.026-.199-.265-.013-.027-.198-.264-.027-.027-.198-.278-.027-.026-.198-.278-.027-.04-.185-.278-.027-.026-.185-.278-.026-.026-.186-.278-.026-.027-.185-.278-.014-.026-.185-.278-.026-.04-.186-.278-.026-.026-.185-.278-.027-.026-.185-.278-.026-.027-.186-.278-.026-.026-.172-.278-.013-.026-.172-.278-.027-.04-.185-.278-.027-.04-.185-.278-.013-.026-.185-.291-.014-.04-.172-.278-.026-.026-.172-.278-.027-.027-.172-.29-.026-.04-.172-.278-.013-.027-.172-.29-.014-.027-.172-.278-.026-.04-.172-.291-.027-.04-.172-.29-.026-.04-.159-.292-.026-.026-.172-.291-.014-.027-.158-.29-.014-.027-.158-.291-.014-.04-.158-.291-.027-.04-.159-.291-.013-.04-.159-.304-.013-.027-.159-.29-.013-.04-.159-.292-.013-.04-.159-.29-.013-.04-.146-.304-.013-.027-.159-.304-.013-.04-.159-.304-.026-.027-.146-.304-.013-.027-.146-.29-.013-.04-.145-.305v.013l-.146-.304-.026-.04-.146-.304-.013-.04-.146-.29-.013-.04-.146-.305-.013-.026-.145-.305-.014-.026-.132-.304-.013-.027-.146-.304-.013-.027-.145-.304-.014-.027-.145-.304-.013-.04-.133-.304-.013-.026-.146-.305-.013-.04-.145-.304-.014-.026-.132-.305-.013-.026-.133-.305-.013-.04-.132-.304-.013-.026-.12-.304-.013-.027-.132-.304-.013-.04-.12-.318-.013-.026-.132-.304-.013-.04-.12-.291-.012-.04-.133-.317-.013-.027-.12-.318-.012-.04-.12-.317-.013-.026-.119-.318-.013-.04-.12-.317-.012-.027-.12-.317-.013-.027-.106-.317-.013-.04-.119-.318-.013-.026-.106-.318-.013-.04-.106-.317-.013-.04-.12-.317-.013-.04-.105-.317-.014-.027-.106-.318-.013-.026-.106-.318-.013-.04-.106-.317-.013-.04-.106-.317-.013-.04-.106-.317-.013-.04-.106-.318-.012-.038-.093-.318-.013-.026-.106-.331-.013-.04-.093-.33-.013-.04-.092-.318-.014-.04-.092-.317-.014-.04-.092-.33-.013-.04-.093-.331-.013-.027-.093-.33-.013-.014-.093-.33-.013-.027-.08-.318-.013-.026-.079-.318v-.026l-.093-.33v-.04l-.079-.318-.013-.04-.08-.318-.013-.04-.08-.33h.014l-.08-.33-.013-.027-.08-.331-.012-.027-.08-.33-.013-.027-.08-.33.014-.014-.08-.33-.013-.04-.08-.331-.012-.04-.067-.33-.013-.04-.08-.331-.012-.027-.067-.33-.013-.04-.066-.331-.013-.04-.066-.33-.067-.332v-.04l-.066-.343v-.04l-.066-.33-.013-.04-.08-.318v-.04l-.066-.357-.013-.04-.066-.344-.013-.04-.053-.33-.013-.04-.053-.33v-.04l-.053-.331v-.04l-.053-.33-.013-.04-.053-.331v.013l-.053-.331v-.026l-.053-.331v-.04l-.053-.33v-.04l-.053-.331v-.027l-.04-.344v-.04l-.04-.33v-.027l-.052-.344-.014-.04-.04-.33v-.04l-.04-.344-.012-.04-.04-.344v-.04l-.04-.344-.013-.04-.04-.343v-.04l-.04-.344-.013-.027-.04-.344-.026-.344v-.04l-.04-.344-.013-.04-.04-.343v-.04l-.026-.344-.013-.04-.027-.344v-.04l-.026-.344v-.04l-.026-.343-.027-.344v-.04l-.026-.344v-.04l-.027-.344v-.427l-.013-.344v-.04l-.013-.344v-.04l-.014-.344-.013-.04-.013-.344v-.37l-.013-.344v-.04l-.014-.344v-167.53l.014-.33v-.423l.013-.345v-1.217l.013-.344v-.026l.013-.345v-.04l.014-.343v-.04l.013-.344v-.026l.013-.345v-.04l.013-.343v-.04l.027-.357v-.04l.026-.344v-.027l.014-.344v-.04l.026-.343v-.04l.013-.344v-.04l.013-.344v-.04l.027-.344v-.04l.026-.343v-.04l.04-.344v-.04l.027-.344.013-.026.026-.344v-.027l.04-.344v-.026l.04-.344.013-.04.04-.344v-.04l.04-.344v-.026l.039-.344v-.027l.04-.344.013-.04.04-.344v-.04l.04-.33v-.04l.039-.344v-.04l.04-.344.013-.04.04-.33v-.04l.053-.344v-.04l.04-.344.013-.04.04-.33.012-.04.053-.344.014-.027.053-.344v-.026l.052-.344v-.027l.053-.33.014-.04.053-.33v-.04l.092-.345.013-.04.053-.33v-.04l.067-.33v-.027l.066-.331v-.027l.066-.344.013-.026.066-.33.013-.027.067-.331.013-.04.066-.33.013-.04.066-.331v-.04l.067-.33v-.027l.066-.331.013-.026.066-.331.013-.027.08-.33v-.04l.08-.331.012-.04.067-.33.013-.04.08-.331v-.04l.079-.33.013-.04.08-.331v-.04l.079-.33.013-.027.08-.331v-.026l.079-.331.013-.04.093-.33v-.027l.092-.331v-.027l.093-.33.013-.04.093-.33v-.04l.092-.331.014-.04.092-.318.013-.026.093-.331.013-.033.093-.33.013-.04.093-.324.013-.026.106-.33.013-.027.093-.318.013-.026.093-.322.013-.026.092-.329.014-.04.106-.322.013-.04.106-.317v-.027l.105-.317v-.04l.106-.318.014-.026.105-.318.014-.04.106-.317.013-.04.106-.317.013-.04.106-.318.013-.026.12-.318.012-.026.106-.318.013-.033.106-.317.014-.027.119-.318.013-.026.119-.318v-.026l.119-.318.013-.026.12-.318.013-.04.119-.317.013-.026.119-.318.013-.04.133-.304.013-.027.132-.317.013-.027.133-.317.013-.04.132-.317.013-.04.133-.318.013-.04.132-.317.014-.04.132-.317.013-.04.133-.318.013-.033.132-.304.013-.04.133-.304.013-.04.132-.317.013-.027.146-.317.013-.027.146-.304.013-.027.132-.304.014-.04.145-.304.013-.027.146-.304.013-.026.146-.305.013-.026.146-.305.013-.04.145-.304.014-.026.145-.305.013-.04.146-.304.013-.026.146-.304.013-.027.146-.304.013-.027.145-.304.014-.027.158-.29.014-.027.158-.304.027-.04.159-.305.013-.026.159-.304.013-.04.159-.291.013-.027.159-.29.013-.027.159-.291.013-.04.159-.291.026-.027.159-.29.013-.04.16-.292.026-.026.158-.291.014-.027.158-.29.027-.04.172-.292.013-.026.159-.291.013-.027.172-.29.013-.027.172-.291.014-.027.172-.291.026-.026.172-.292.013-.026.172-.291.027-.027.172-.29.013-.027.172-.291.027-.027.172-.29.013-.027.185-.292.027-.04.185-.29.013-.027.172-.278.027-.026.185-.278.026-.027.172-.29.014-.027.185-.278.013-.026.185-.278.027-.027.185-.291.027-.026.185-.278.013-.04.185-.278.014-.026.185-.278.013-.027.199-.278.026-.026.185-.278.027-.026.198-.278.013-.027.199-.278.013-.026.199-.278.013-.027.198-.277.027-.027.198-.278.014-.026.198-.278.027-.027.198-.264.013-.027.199-.278.026-.026.199-.265.026-.026.199-.265.026-.026.199-.265.026-.026.199-.265.013-.027.198-.264.027-.027.212-.264.026-.027.212-.264.026-.027.212-.265.026-.026.212-.265.027-.026.211-.265.027-.04.211-.264.014-.027.211-.264.027-.027.212-.264.026-.027.212-.251.026-.027.212-.264.027-.027.211-.265.027-.026.225-.252.026-.026.212-.265.026-.026.212-.252.027-.026.211-.265.027-.026.225-.265.013-.026.225-.252.026-.026.225-.252.027-.026.225-.251.026-.027.225-.251.013-.027.225-.251.027-.027.225-.251.026-.027.225-.251.013-.026.225-.252.027-.026.238-.252.013-.026.238-.252.027-.026.251-.238.027-.027.238-.251.026-.027.239-.251.026-.027.238-.238.027-.026.238-.238.026-.027.239-.238.026-.027.252-.238.026-.026.238-.238.027-.027.238-.238.026-.027.239-.238.026-.026.238-.238.027-.027.238-.238.026-.027.238-.238.027-.026.238-.238.027-.027.251-.225.027-.026.25-.225.027-.027.252-.238.026-.026.252-.239.026-.013.252-.225.026-.013.252-.225.026-.026.251-.225.027-.027.251-.225.027-.026.251-.225.027-.013.264-.225.027-.027.264-.225.027-.026.265-.225.026-.027.265-.211.026-.027.265-.212.026-.026.252-.212.026-.026.265-.212.026-.027.265-.211.026-.013.265-.212.027-.027.264-.211.027-.027.264-.212.027-.026.278-.212.026-.026.265-.212.026-.026.278-.212.027-.027.278-.211.026-.027.265-.212.026-.013.278-.212.026-.026.265-.212.027-.026.277-.199.027-.026.278-.212.026-.026.278-.199.027-.013.278-.199.04-.026.277-.199.027-.013.278-.198.026-.027.278-.211.026-.014.291-.198.027-.027.278-.198.04-.013.277-.199.027-.013.278-.199.026-.013.291-.198.027-.027.278-.198.026-.013.291-.186.027-.013.278-.198.04-.027.29-.185.027-.027.291-.198.027-.027.29-.185.04-.013.291-.185.027-.027.291-.185.027-.013.29-.186.027-.013.291-.185.027-.013.29-.186.04-.013.292-.172h.013l133.004-82.044.014-.013.277-.172.027-.014.291-.185.04-.026.29-.172.04-.027.292-.172.04-.026.29-.172.04-.014.305-.172.026-.026.291-.172.04-.013.291-.172.026-.014.305-.158.026-.027.305-.159.026-.026.291-.159.04-.013.304-.159.027-.026.29-.16.04-.026.292-.159.04-.026.29-.159.027-.026.304-.159.027-.013.29-.16.04-.012.292-.16.04-.012.304-.16.04-.012.304-.16.026-.012.305-.146.04-.013.304-.146.04-.013.29-.146.04-.013.305-.145.026-.014.304-.145.04-.013.305-.146.04-.026.304-.146.04-.013.304-.146.04-.013.304-.132.04-.014.304-.132.026-.026.305-.133.026-.013.304-.132.04-.027.304-.132.04-.013.304-.133.04-.013.305-.132.04-.013.304-.133.04-.013.304-.132.04-.014.304-.119.04-.013.304-.132.04-.013.317-.133.04-.013.317-.132.04-.027.304-.119.027-.013.317-.12.04-.012.305-.12.026-.013.318-.119.04-.013.317-.106.04-.013.317-.12.04-.013.317-.119.04-.013.318-.106.04-.013.317-.106.04-.013.304-.106.04-.013.317-.106.04-.013.304-.106.04-.013.318-.106.026-.013.318-.106.04-.014.317-.105.04-.014.317-.105.04-.014.318-.092.026-.014.318-.092.04-.013.317-.093h.04l.317-.093.04-.013.318-.093.026-.013.318-.092.026-.014.318-.092.04-.014.317-.092.04-.013.317-.093.04-.013.318-.08.04-.013.317-.08.026-.013.318-.092.032-.013.33-.08h.027l.318-.092h.04l.326-.08.04-.013.33-.08.04-.013.318-.08h.04l.33-.078h.04l.318-.08.04-.013.317-.066.04-.013.317-.08.04-.013.318-.066h.04l.317-.066.04-.014.317-.066h.027l.317-.066.04-.013.33-.066h.027l.331-.067.027-.013.33-.066.04-.013.33-.066.04-.014.331-.053h.04l.318-.052.04-.014.33-.066.04-.013.33-.053h.04l.318-.053.04-.013.33-.053.04-.013.318-.053h.026l.318-.053h.04l.33-.053.04-.013.33-.053h.04l.331-.053h.04l.331-.053h.04l.33-.04h.04l.318-.04h.04l.33-.04.04-.013.33-.04.027-.012.331-.027h.04l.317-.04h.04l.318-.04h.04l.33-.039h.04l.33-.04h.04l.318-.026h.04l.33-.04.04-.013.331-.027.04-.013.33-.026h.04l.326-.027h.04l.33-.026h.04l.33-.013.04-.014.331-.026.027-.013.33-.014h.04l.331-.026h.027l.33-.013h.04l.331-.014h.04l.33-.013h.04l.331-.013.04-.013.33-.013h.04l.331-.014h.04l.33-.013h.04l.331-.013h.04l.33-.013h.027l.331-.014h.41l.331-.013h.768zm-.305 35.729h-.217l-.217.003h-.215l-.225.005-.225.005-.225.007-.225.013-.225.013-.225.014-.212.013-.225.013-.212.013-.211.013-.212.014-.225.013-.212.013-.225.027-.225.026-.211.027-.225.026-.225.026-.225.027-.212.026-.225.027-.212.026-.211.027-.225.026-.212.027-.212.026-.212.027-.211.026-.225.027-.212.04-.212.026-.225.04-.211.04-.212.039-.212.04-.212.04-.211.039-.212.04-.212.026-.225.04-.211.04-.225.04-.212.039-.212.04-.212.04-.211.052-.212.053-.212.053-.212.04-.211.04-.212.052-.212.053-.211.053-.212.053-.212.053-.212.053-.211.053-.212.053-.212.053-.212.053-.211.066-.212.053-.212.066-.198.066-.212.066-.212.067-.211.066-.212.066-.212.066-.198.066-.212.066-.212.08-.211.066-.212.066-.212.08-.212.066-.211.066-.199.066-.212.08-.211.079-.212.08-.199.079-.211.079-.199.08-.198.079-.212.092-.212.08-.211.08-.212.079-.199.092-.198.08-.212.092-.198.093-.199.093-.198.092-.212.093-.199.092-.211.093-.199.093-.198.092-.199.093-.212.093-.198.092-.199.093-.198.106-.199.106-.198.092-.199.106-.198.093-.199.106-.198.105-.198.106-.199.106-.198.106-.199.12-.185.105-.199.106-.185.106-.198.119-.199.119-.198.119-.186.106-.198.119-.185.12-.199.118-.198.12-.212.132-132.86 81.885-.224.146-.212.132-.198.132-.199.133-.198.132-.199.132-.198.133-.199.132-.198.132-.199.133-.198.132-.199.132-.198.146-.185.132-.186.133-.198.132-.185.132-.186.133-.185.132-.185.132-.186.133-.185.132-.185.145-.185.133-.186.145-.185.146-.185.145-.185.146-.186.146-.185.145-.172.146-.185.145-.185.146-.172.145-.186.146-.185.145-.172.146-.185.146-.172.145-.172.146-.172.159-.172.158-.172.146-.172.145-.172.16-.172.158-.173.159-.172.159-.172.158-.172.16-.172.158-.172.159-.172.159-.172.158-.172.16-.159.158-.172.159-.158.172-.172.159-.16.172-.158.158-.159.172-.159.16-.158.171-.16.172-.171.172-.159.16-.159.171-.159.172-.158.172-.146.172-.159.172-.159.172-.158.172-.16.186-.158.172-.145.172-.146.172-.159.185-.145.172-.16.172-.145.185-.145.172-.146.186-.145.185-.146.185-.146.185-.145.186-.146.185-.132.185-.146.185-.145.186-.146.185-.145.185-.133.185-.132.186-.132.185-.133.198-.132.186-.132.185-.133.198-.132.186-.132.185-.133.185-.132.186-.119.198-.132.198-.133.186-.132.198-.12.199-.118.185-.12.199-.118.198-.12.198-.119.199-.132.198-.132.199-.12.198-.118.199-.12.198-.119.199-.119.198-.119.199-.119.198-.119.199-.12.198-.118.199-.12.212-.118.198-.12.199-.119.211-.105.199-.106.212-.106.211-.106.212-.106.199-.106.198-.106.212-.105.198-.106.212-.093.198-.106.212-.106.212-.106.212-.105.211-.106.212-.093.212-.093.212-.092.211-.093.212-.092.212-.093.211-.093.212-.092.212-.093.212-.08.211-.092.212-.093.225-.092.212-.093.212-.093.211-.079.212-.093.225-.092.212-.08.211-.079.225-.08.212-.079.225-.08.212-.079.225-.079.225-.08.225-.066.225-.079.211-.08.225-.065.225-.067.212-.066.225-.08.225-.065.212-.067.211-.066.225-.08.225-.065.225-.066.212-.067.225-.066.225-.066.225-.066.225-.066.225-.053.225-.053.225-.066.225-.053.225-.066.225-.053.225-.053.224-.053.239-.053.225-.053.225-.053.225-.053.225-.053.224-.053.225-.04.225-.052.225-.04.225-.04.239-.04.238-.04.238-.039.238-.04.225-.04.225-.039.238-.04.238-.04.225-.04.225-.039.225-.04.238-.026.239-.026.238-.027.225-.04.238-.04.225-.026.238-.026.238-.027.239-.026.238-.027.238-.026.238-.027.225-.026.238-.026.238-.014.239-.026.238-.027.238-.013.238-.013.238-.013.239-.014.238-.013.238-.013.238-.013.238-.013.239-.014.238-.013.238v.238l-.013.238-.013.239v.238l-.014.238v167.794l.014.238v.715l.013.225.013.238.013.238.014.238.013.238.013.238.013.239.013.238.014.238.026.238.013.238.014.239.013.238.026.225.027.238.026.225.013.238.027.225.026.225.027.225.026.225.027.238.026.225.027.225.026.238.027.238.026.225.027.239.04.225.039.225.04.225.04.224.04.239.039.225.04.225.04.225.039.225.053.224.04.225.04.225.039.225.053.225.053.225.04.225.052.225.053.225.053.225.053.225.053.225.053.225.053.225.053.212.066.211.053.225.053.225.053.225.066.225.053.212.053.225.053.212.066.225.053.211.066.225.066.225.066.212.067.225.066.225.066.212.066.225.08.211.079.212.08.212.079.212.066.211.08.225.079.212.079.212.08.211.079.212.08.212.079.212.079.211.08.212.079.212.092.211.093.212.08.212.079.212.08.211.079.212.08.212.092.212.092.211.093.212.093.212.092.211.093.212.092.212.093.212.093.211.092.212.093.212.093.198.106.212.105.199.106.211.106.199.106.198.106.199.106.198.106.199.105.198.12.199.105.198.106.199.106.198.12.199.118.198.106.199.106.198.106.199.119.198.106.199.119.185.119.198.12.186.118.198.12.199.118.185.12.185.119.185.119.186.119.198.119.199.132.185.12.185.118.199.12.185.119.185.132.186.132.185.133.198.132.186.132.185.133.185.132.185.132.186.133.185.132.185.145.185.146.186.132.185.133.185.132.185.132.186.146.172.145.172.146.185.146.172.145.185.146.172.145.172.146.172.145.172.146.172.146.172.145.172.146.173.145.172.146.172.145.172.16.172.158.172.146.172.158.158.16.173.158.158.159.172.145.172.16.172.158.16.159.158.158.159.16.159.158.172.159.158.159.16.158.158.16.159.158.159.172.158.159.16.159.158.172.159.158.159.16.158.171.16.172.145.172.145.172.16.172.158.172.145.172.146.172.159.173.159.172.145.185.146.185.145.185.146.172.145.172.146.186.146.172.145.185.132.172.146.185.146.185.145.186.146.172.132.185.146.185.132.186.145.185.146.185.132.185.133.199.132.185.132.185.133.186.132.185.132.185.133.185.132.199.132.198.12.199.132.185.132.199.132.198.133.185.119.199.119.198.119.199.12.198.118.199.12.212.118.198.12.199.119.225.132 138.522 80.986.172.105.146.08.158.08.16.079.158.079.146.093.158.08.16.078.158.08.159.093.159.079.158.08.16.079.158.08.159.078.159.08.158.08.16.079.145.08.159.078.158.08.16.066.158.08.159.066.159.066.158.066.16.08.158.079.159.066.158.08.16.065.158.067.159.066.159.066.158.066.16.066.158.066.159.067.159.066.158.053.172.066.16.066.158.066.159.066.159.067.158.052.16.067.158.053.159.052.172.053.159.053.145.053.344.106.331.106.33.093.332.092.33.093.331.093.331.092.331.093.33.092.332.08.33.08.331.079.331.066.331.08.33.065.332.067.33.066.331.053.331.066.33.053.332.053.344.053.33.053.345.04.344.039.344.04.344.026.33.027.345.026.33.026.345.027.344.026.33.027.331.013.331.013.344.014h1.694l.344-.014h.344l.344-.013.344-.013.344-.027.344-.026.344-.013.344-.027.345-.026.344-.027.33-.026.344-.04.345-.04.33-.04.344-.039.331-.053.344-.053.331-.053.344-.053.331-.053.33-.066.332-.053.344-.066.33-.066.331-.08.331-.066.331-.079.33-.08.332-.079.33-.08.331-.092.331-.092.33-.093.332-.093.344-.106.159-.053.158-.052.16-.053.171-.053.159-.053.172-.053.159-.053.159-.053.172-.053.158-.053.16-.053.171-.066.16-.053.171-.053.159-.066.159-.053.159-.053.158-.053.172-.066.16-.053.158-.066.159-.066.159-.066.158-.067.16-.066.158-.066.159-.066.158-.066.16-.066.158-.067.159-.079.159-.08.158-.066.16-.079.158-.08.159-.065.159-.08.158-.08.16-.079.145-.08.159-.078.158-.08.16-.08.158-.079.159-.08.159-.078.158-.08.16-.08.145-.079.159-.08.158-.078.172-.093 153.463-85.525.185-.092.172-.093.159-.093.159-.092.159-.093.158-.106.172-.092.16-.093.158-.093.159-.092.159-.106.158-.106.16-.093.158-.092.159-.093.159-.106.158-.106.16-.092.158-.106.159-.093.145-.106.146-.105.145-.106.146-.106.146-.106.158-.106.146-.106.159-.106.145-.105.146-.106.145-.106.146-.106.146-.106.158-.106.146-.119.145-.106.146-.119.146-.106.145-.119.146-.119.145-.119.146-.106.145-.106.146-.119.132-.119.146-.119.145-.12.133-.105.145-.119.146-.132.132-.12.146-.119.132-.119.132-.119.133-.132.145-.12.133-.132.132-.119.132-.132.133-.132.132-.12.132-.132.133-.119.132-.132.132-.132.133-.133.132-.132.119-.132.132-.133.12-.132.132-.132.132-.133.132-.132.12-.132.119-.133.119-.132.119-.132.132-.133.12-.132.118-.132.12-.133.119-.132.119-.132.119-.133.119-.132.119-.146.119-.145.12-.146.118-.132.12-.132.118-.133.12-.145.119-.133.119-.145.106-.133.105-.145.106-.146.106-.132.12-.146.105-.145.106-.146.106-.145.106-.146.106-.145.105-.146.106-.145.106-.146.106-.146.106-.145.106-.146.106-.145.092-.146.093-.159.106-.158.106-.146.092-.146.093-.145.106-.159.106-.145.092-.146.093-.159.092-.159.093-.158.093-.16.092-.145.093-.159.093-.158.092-.146.093-.159.093-.159.092-.158.08-.16.079-.158.093-.159.092-.159.08-.158.092-.16.093-.158.08-.159.079-.158.08-.173.078-.158.093-.16.093-.158.08-.159.079-.158.079-.16.08-.171.079-.16.08-.158.079-.172.079-.159.08-.159.079-.172.08-.172.078-.172.08-.158.066-.16.066-.171.066-.172.067-.172.066-.16.066-.171.066-.172.066-.172.066-.159.067-.172.066-.172.066-.172.066-.172.066-.172.053-.172.053-.172.053-.172.053-.172.066-.172.066-.172.066-.172.067-.172.053-.172.066-.172.053-.172.053-.172.066-.172.053-.172.053-.173.053-.172.052-.172.04-.172.053-.172.053-.172.053-.172.053-.172.04-.172.04-.185.052-.172.04-.172.04-.185.053-.172.04-.172.039-.172.04-.172.04-.186.039-.172.04-.172.026-.185.04-.185.04-.172.026-.186.04-.172.04-.185.04-.185.039-.172.04-.185.026-.186.04-.185.026-.172.04-.172.026-.185.027-.186.026-.185.027-.185.026-.185.027-.186.026-.185.013-.185.027-.172.013-.185.027-.186.026-.172.026-.185.014-.185.013-.185.013-.186.013-.185.027-.185.013-.185.013-.186.014-.185.013-.185.013-.186.013-.185.013-.185.014-.185.013-.186.013-.185.013-.185v-.37l.014-.186V165.576l-.014-.163-.013-.172v-.172l-.013-.172v-.172l-.013-.172v-.172l-.014-.172-.013-.159-.013-.172-.013-.172-.013-.172-.014-.159-.013-.172-.013-.158-.013-.172-.027-.173-.013-.158-.013-.16-.027-.158-.013-.159-.026-.172-.014-.159-.026-.158-.027-.172-.013-.172-.013-.16-.027-.145-.052-.348-.04-.337-.053-.344-.053-.331-.066-.33-.066-.332-.053-.33-.066-.331-.08-.331-.08-.331-.079-.33-.08-.332-.078-.33-.08-.331-.08-.331-.092-.331-.093-.33-.092-.332-.106-.33-.093-.318-.106-.318-.105-.317-.106-.318-.106-.317-.12-.318-.118-.318-.12-.304-.118-.318-.12-.317-.119-.318-.132-.304-.12-.318-.131-.304-.133-.304-.132-.305-.146-.304-.132-.304-.146-.305-.145-.304-.146-.291-.158-.305-.146-.304-.159-.304-.159-.291-.158-.292-.16-.29-.158-.292-.159-.291-.172-.291-.172-.291-.172-.291-.185-.291-.172-.278-.172-.278-.185-.278-.186-.278-.185-.278-.185-.278-.186-.278-.185-.278-.198-.264-.199-.265-.198-.265-.199-.264-.198-.265-.212-.265-.212-.264-.211-.265-.212-.265-.212-.251-.225-.251-.212-.252-.225-.251-.225-.252-.224-.251-.225-.252-.225-.25-.239-.24-.238-.237-.238-.239-.238-.238-.238-.238-.252-.238-.251-.238-.252-.225-.251-.225-.251-.225-.252-.225-.251-.225-.265-.225-.265-.212-.264-.212-.252-.211-.278-.225-.119-.093-.132-.106-.132-.106-.133-.105-.132-.106-.132-.093-.133-.106-.132-.106-.146-.106-.145-.105-.132-.106-.133-.106-.132-.106-.132-.093-.133-.105-.145-.106-.133-.093-.132-.093-.146-.105-.145-.093-.146-.093-.132-.092-.146-.093-.145-.093-.146-.092-.145-.093-.146-.092-.145-.093-.146-.093-.146-.092-.145-.093-.146-.08-.145-.079-.172-.092L278.37 42.893l-.212-.13-.192-.105-.198-.12-.199-.118-.194-.11-.199-.106-.192-.106-.198-.106-.199-.106-.198-.106-.195-.105-.198-.106-.199-.106-.198-.106-.199-.106-.198-.106-.198-.106-.203-.092-.198-.106-.199-.093-.198-.092-.199-.106-.205-.093-.199-.093-.198-.092-.206-.093-.199-.092-.198-.08-.206-.092-.2-.093-.2-.093-.204-.08-.199-.078-.212-.08-.203-.093-.21-.079-.211-.093-.212-.079-.205-.08-.205-.079-.208-.08-.212-.079-.211-.079-.199-.08-.198-.065-.199-.067-.212-.08-.211-.065-.199-.066-.211-.067-.212-.066-.199-.066-.211-.066-.212-.066-.212-.066-.198-.067-.212-.066-.212-.066-.212-.066-.211-.053-.212-.066-.212-.053-.211-.066-.212-.053-.212-.053-.212-.053-.211-.066-.212-.053-.212-.053-.212-.04-.211-.053-.212-.053-.212-.053-.211-.04-.212-.052-.212-.04-.212-.04-.211-.053-.212-.04-.212-.039-.212-.04-.211-.04-.212-.039-.212-.04-.225-.04-.211-.026-.212-.026-.212-.027-.212-.026-.211-.04-.212-.04-.212-.026-.225-.04-.211-.026-.212-.04-.212-.026-.212-.027-.211-.026-.212-.027-.212-.026-.225-.027-.212-.013-.211-.026-.212-.027-.212-.013-.211-.013-.212-.014-.212-.013-.212-.013-.225-.013-.225-.014-.211-.013-.212-.013h-.212l-.211-.013-.212-.014h-.225l-.212-.013-.212-.013-.198-.013-.212-.013h-.436l-.212-.014h-.424z"/><path fill="#fff" fill-rule="nonzero" d="M151.216 392.013V117.8h57.37v99.882h95.166V117.8h57.537v274.213h-57.537V272.115h-95.166v119.898z"/></svg>